<svg xmlns="http://www.w3.org/2000/svg" width="30" height="30" viewBox="0 0 30 30">
  <defs>
    <style>
      .cls-1 {
        fill-rule: evenodd;
      }
    </style>
  </defs>
  <g id="Mesa_de_trabajo_1" data-name="Mesa de trabajo 1">
    <path id="FJ" class="cls-1" d="M8.649,23.719v-7.29h5.49l2.07-3.09H5.529v10.38h3.12ZM5.529,8.989h10.14c0.24-.36.78-1.14,1.23-1.83,0.27-.39.54-0.84,0.87-1.29H5.529v3.12ZM13.9,23.719h1.71c4.29,0,8.55-3.09,8.55-7.65V5.869h-5.22c-0.33.45-.84,1.2-1.29,1.89-0.27.39-.54,0.78-0.81,1.23h4.2v6.93a5.35,5.35,0,0,1-5.61,5.04H13.9v2.76Z"/>
  </g>
</svg>
